<svg width="125" height="182" viewBox="0 0 125 182" fill="none" xmlns="http://www.w3.org/2000/svg">
<g opacity="0.7">
<path opacity="0.7" d="M12.416 165.91C14.3026 165.91 15.8321 164.392 15.8321 162.52C15.8321 160.648 14.3026 159.13 12.416 159.13C10.5294 159.13 9 160.648 9 162.52C9 164.392 10.5294 165.91 12.416 165.91Z" fill="url(#paint0_linear)"/>
</g>
<path opacity="0.2" d="M12.9237 165.475C14.7255 165.475 16.1862 164.025 16.1862 162.237C16.1862 160.449 14.7255 159 12.9237 159C11.1218 159 9.66113 160.449 9.66113 162.237C9.66113 164.025 11.1218 165.475 12.9237 165.475Z" fill="#A373DD"/>
<path d="M73.2283 175.684C73.9256 175.684 74.4908 175.123 74.4908 174.431C74.4908 173.739 73.9256 173.178 73.2283 173.178C72.5311 173.178 71.9659 173.739 71.9659 174.431C71.9659 175.123 72.5311 175.684 73.2283 175.684Z" fill="#854DCE"/>
<path d="M20.0077 181.518C20.3973 181.518 20.7132 181.204 20.7132 180.818C20.7132 180.431 20.3973 180.117 20.0077 180.117C19.6181 180.117 19.3022 180.431 19.3022 180.818C19.3022 181.204 19.6181 181.518 20.0077 181.518Z" fill="#854DCE"/>
<path d="M5.403 61.9552C6.10023 61.9552 6.66544 61.3943 6.66544 60.7024C6.66544 60.0106 6.10023 59.4497 5.403 59.4497C4.70577 59.4497 4.14056 60.0106 4.14056 60.7024C4.14056 61.3943 4.70577 61.9552 5.403 61.9552Z" fill="#854DCE"/>
<path d="M39.2736 167.571H38.1498V166.455H37.6918V167.571H36.568V168.025H37.6918V169.138H38.1498V168.025H39.2736V167.571Z" fill="#854DCE"/>
<path d="M95.4721 32.1034H94.9597V31.595H94.7518V32.1034H94.2394V32.3098H94.7518V32.8182H94.9597V32.3098H95.4721V32.1034Z" fill="white"/>
<path d="M37.3007 38.2443H36.7883V37.7358H36.5804V38.2443H36.068V38.4506H36.5804V38.9591H36.7883V38.4506H37.3007V38.2443Z" fill="white"/>
<path d="M6.11093 111.689H5.59852V111.18H5.39059V111.689H4.87817V111.895H5.39059V112.403H5.59852V111.895H6.11093V111.689Z" fill="white"/>
<path d="M12.7944 90.5641H12.282V90.0557H12.0741V90.5641H11.5617V90.7704H12.0741V91.2789H12.282V90.7704H12.7944V90.5641Z" fill="white"/>
<g opacity="0.7">
<path opacity="0.7" d="M118.043 139.313C119.618 139.313 120.894 138.046 120.894 136.483C120.894 134.92 119.618 133.653 118.043 133.653C116.468 133.653 115.191 134.92 115.191 136.483C115.191 138.046 116.468 139.313 118.043 139.313Z" fill="url(#paint1_linear)"/>
</g>
<path opacity="0.2" d="M118.043 139.104C119.501 139.104 120.684 137.93 120.684 136.483C120.684 135.035 119.501 133.862 118.043 133.862C116.584 133.862 115.401 135.035 115.401 136.483C115.401 137.93 116.584 139.104 118.043 139.104Z" fill="#A373DD"/>
<path opacity="0.2" d="M113.953 161.861C115.584 161.861 116.906 160.549 116.906 158.93C116.906 157.312 115.584 156 113.953 156C112.322 156 111 157.312 111 158.93C111 160.549 112.322 161.861 113.953 161.861Z" fill="#A373DD"/>
<g opacity="0.7">
<path opacity="0.7" d="M98.6901 75.4135C98.7105 69.2572 97.224 63.1881 94.3582 57.7279C92.9992 55.1635 91.7591 53.5718 90.8036 52.5917C90.4386 52.2091 89.9619 51.9497 89.4405 51.8501C88.9192 51.7506 88.3795 51.8158 87.8975 52.0366C87.512 52.1722 87.1637 52.3951 86.8801 52.6875C85.5904 54.0139 84.4245 55.7677 83.4145 57.6321C80.4014 63.2225 78.8387 69.4694 78.8673 75.809V79.6114H76.4092V35.3949C76.4092 26.1296 74.32 16.9895 70.2208 8.8836C68.2801 5.04188 66.5077 2.65432 65.1487 1.18789C64.8188 0.814692 64.4124 0.515674 63.9567 0.310821C63.5011 0.105969 63.0065 0 62.5063 0C62.006 0 61.5115 0.105969 61.0558 0.310821C60.6001 0.515674 60.1937 0.814692 59.8638 1.18789C58.0221 3.17507 56.3587 5.80335 54.913 8.59621C50.6084 16.879 48.4226 26.2818 48.4226 35.8174V79.5942H46.2987V75.6076C46.3257 69.2721 44.763 63.0295 41.7515 57.443C40.7341 55.5786 39.5682 53.8248 38.2859 52.4984C37.9135 52.1058 37.4241 51.842 36.8895 51.7457C36.3549 51.6493 35.8033 51.7254 35.3155 51.9629L35.4046 52.0095C35.0937 52.1468 34.8122 52.3419 34.5753 52.5843C33.6223 53.5669 32.3821 55.1561 31.0232 57.7205C28.1574 63.1807 26.6708 69.2499 26.6912 75.4062V141.482H34.2758L33.4391 146.913V163.156H39.6424V146.913L38.8132 141.479H46.2888V81.2989H48.4127V141.219H54.4699L53.6011 146.913V163.156H59.8044V146.913L58.9355 141.212H67.1043L66.2305 146.913V163.156H72.4338V146.913L71.5649 141.212H76.4018V81.3063H78.8599V141.577H80.8525V141.487H87.442L86.6152 146.913V163.156H92.8185V146.913L91.9893 141.479H98.6901V75.4135Z" fill="url(#paint2_linear)"/>
</g>
<path d="M40.8727 143.754H34.9986L36.0482 136.677H39.8231L40.8727 143.754Z" fill="#535461"/>
<path d="M71.6559 144.371H65.7818L66.8314 137.294H70.6063L71.6559 144.371Z" fill="#535461"/>
<g opacity="0.1">
<path opacity="0.1" d="M35.7561 139.487H40.1152L39.8231 137.51H36.0482L35.7561 139.487Z" fill="black"/>
</g>
<path d="M91.2095 143.754H85.3379L86.385 136.677H90.1624L91.2095 143.754Z" fill="#535461"/>
<g opacity="0.1">
<path opacity="0.1" d="M86.0929 139.487H90.4545L90.1624 137.51H86.385L86.0929 139.487Z" fill="black"/>
</g>
<path d="M59.9578 143.754H54.0862L55.1333 136.677H58.9108L59.9578 143.754Z" fill="#535461"/>
<g opacity="0.1">
<path opacity="0.1" d="M54.8412 139.487H59.2029L58.9108 137.51H55.1333L54.8412 139.487Z" fill="black"/>
</g>
<g opacity="0.1">
<path opacity="0.1" d="M66.7973 139.487H71.1589L70.8643 137.51H67.0894L66.7973 139.487Z" fill="black"/>
</g>
<path d="M82.8204 78.1941H40.8727V79.8595H82.8204V78.1941Z" fill="#A373DD"/>
<path d="M89.3035 51.8916C89.0818 51.6487 88.8114 51.4545 88.5095 51.3217C88.2077 51.1888 87.8811 51.1201 87.5509 51.1201C87.2207 51.1201 86.8941 51.1888 86.5922 51.3217C86.2904 51.4545 86.0199 51.6487 85.7983 51.8916C84.578 53.1837 83.474 54.8908 82.511 56.7061C79.6547 62.1686 78.1775 68.2376 78.2063 74.3917V138.463H96.7717V74.1215C96.7949 68.1377 95.3893 62.2336 92.67 56.8927C91.3803 54.3971 90.207 52.8349 89.3035 51.8916Z" fill="#3D3D73"/>
<path d="M36.0655 51.8916C36.2871 51.6487 36.5576 51.4545 36.8594 51.3217C37.1613 51.1888 37.4879 51.1201 37.8181 51.1201C38.1483 51.1201 38.4749 51.1888 38.7767 51.3217C39.0786 51.4545 39.349 51.6487 39.5706 51.8916C40.7935 53.1837 41.895 54.8908 42.8604 56.7061C45.7156 62.1691 47.1927 68.2378 47.1651 74.3917V138.463H28.5998V74.1215C28.5765 68.1377 29.9821 62.2336 32.7015 56.8927C33.9887 54.3971 35.162 52.8349 36.0655 51.8916Z" fill="#3D3D73"/>
<path d="M28.7062 75.4873L33.1123 75.5094V80.8986H28.7062V75.4873Z" fill="#A373DD"/>
<path d="M42.7589 75.4873L47.1651 75.5094V80.8986H42.7589V75.4873Z" fill="#A373DD"/>
<path d="M78.2063 75.4873L82.61 75.5094V80.8986H78.2063V75.4873Z" fill="#A373DD"/>
<path d="M92.259 75.4873L96.6627 75.5094V80.8986H92.259V75.4873Z" fill="#A373DD"/>
<g opacity="0.1">
<path opacity="0.1" d="M42.8604 56.6224C41.895 54.8072 40.7934 53.1 39.5706 51.808C39.2253 51.4281 38.764 51.1711 38.2573 51.0766C37.7506 50.9821 37.2267 51.0552 36.766 51.2848C37.0314 51.4162 37.2711 51.5933 37.4739 51.808C38.6943 53.1 39.7983 54.8072 40.7613 56.6224C43.6178 62.0849 45.095 68.154 45.0659 74.308V138.374H47.1651V74.3105C47.1932 68.1557 45.7161 62.0861 42.8604 56.6224Z" fill="black"/>
</g>
<g opacity="0.1">
<path opacity="0.1" d="M84.1893 56.7994C85.1522 54.9842 86.2563 53.277 87.4766 51.985C87.7048 51.7403 87.9811 51.5447 88.2885 51.4102C87.8349 51.2132 87.3303 51.1627 86.8461 51.2658C86.3619 51.369 85.9226 51.6206 85.5904 51.985C84.3676 53.277 83.2635 54.9842 82.3006 56.7994C79.4454 62.2624 77.9683 68.3312 77.9959 74.4851V138.561H79.8846V74.49C79.855 68.3343 81.3322 62.2635 84.1893 56.7994Z" fill="black"/>
</g>
<path d="M38.0161 159.573H37.8552C37.0976 159.573 36.371 159.274 35.8353 158.742C35.2996 158.211 34.9986 157.49 34.9986 156.738V143.754H40.8727V156.738C40.8727 157.49 40.5717 158.211 40.036 158.742C39.5003 159.274 38.7737 159.573 38.0161 159.573Z" fill="url(#paint3_linear)"/>
<path d="M57.1037 159.573H56.9403C56.1832 159.572 55.4572 159.273 54.922 158.742C54.3869 158.21 54.0862 157.489 54.0862 156.738V143.754H59.9578V156.738C59.9578 157.489 59.6572 158.21 59.122 158.742C58.5868 159.273 57.8609 159.572 57.1037 159.573Z" fill="url(#paint4_linear)"/>
<path d="M68.7993 159.599H68.6384C67.8808 159.599 67.1542 159.3 66.6185 158.769C66.0828 158.237 65.7818 157.516 65.7818 156.764V143.78H71.6559V156.764C71.6559 157.516 71.3549 158.237 70.8192 158.769C70.2835 159.3 69.5569 159.599 68.7993 159.599Z" fill="url(#paint5_linear)"/>
<path d="M88.2531 159.599H88.0922C87.3346 159.599 86.608 159.3 86.0723 158.769C85.5366 158.237 85.2356 157.516 85.2356 156.764V143.78H91.1097V156.764C91.1097 157.516 90.8087 158.237 90.273 158.769C89.7373 159.3 89.0107 159.599 88.2531 159.599Z" fill="url(#paint6_linear)"/>
<path d="M56.9108 159.599H56.7499C55.9923 159.599 55.2657 159.3 54.73 158.769C54.1943 158.237 53.8933 157.516 53.8933 156.764V143.78H59.7674V156.764C59.7674 157.516 59.4664 158.237 58.9307 158.769C58.395 159.3 57.6684 159.599 56.9108 159.599Z" fill="url(#paint7_linear)"/>
<path d="M65.015 1.65452C64.7083 1.2924 64.3255 1.00127 63.8934 0.801528C63.4613 0.60179 62.9903 0.498291 62.5136 0.498291C62.0369 0.498291 61.566 0.60179 61.1339 0.801528C60.7018 1.00127 60.319 1.2924 60.0123 1.65452C58.2795 3.59011 56.6953 6.14716 55.3091 8.86879C51.2346 16.9354 49.1652 26.0926 49.1652 35.3776V138.202H75.6517V34.9649C75.6517 25.9428 73.6714 17.0337 69.7999 9.14881C67.9805 5.40781 66.3047 3.08165 65.015 1.65452Z" fill="#1A1A47"/>
<g opacity="0.1">
<path opacity="0.1" d="M75.5255 38.8926H49.3088V39.9021H75.5255V38.8926Z" fill="black"/>
</g>
<path d="M123.273 79.3382C122.585 78.4423 121.725 77.6909 120.743 77.1275C119.614 76.4815 118.351 76.1019 117.05 76.0178C115.75 75.9338 114.448 76.1476 113.244 76.6427C112.04 77.1378 110.967 77.901 110.108 78.8733C109.249 79.8456 108.627 81.0008 108.29 82.2498C107.952 83.4988 107.909 84.808 108.163 86.0762C108.417 87.3445 108.961 88.5378 109.754 89.5639C110.547 90.59 111.567 91.4214 112.736 91.9938C113.904 92.5663 115.19 92.8644 116.493 92.8652C116.673 92.8652 116.854 92.8652 117.03 92.8456C118.561 92.7497 120.038 92.244 121.303 91.3821C122.568 90.5203 123.574 89.3345 124.215 87.9508C124.855 86.5671 125.106 85.037 124.941 83.5232C124.775 82.0093 124.2 80.5682 123.275 79.3529L123.273 79.3382Z" fill="url(#paint8_linear)"/>
<path opacity="0.2" d="M124.523 84.4179C124.523 86.4445 123.744 88.3949 122.346 89.8724C120.948 91.3498 119.036 92.2435 116.998 92.3715C116.832 92.3715 116.661 92.3887 116.49 92.3887C115.257 92.3894 114.041 92.1086 112.935 91.568C111.829 91.0274 110.863 90.2414 110.112 89.271C109.361 88.3006 108.846 87.1717 108.605 85.9718C108.364 84.7719 108.405 83.5332 108.724 82.3514C109.043 81.1697 109.632 80.0767 110.445 79.157C111.259 78.2374 112.274 77.5157 113.413 77.0479C114.553 76.5802 115.785 76.3788 117.015 76.4595C118.245 76.5401 119.44 76.9007 120.508 77.5131C121.438 78.0488 122.251 78.7637 122.899 79.6157C123.954 80.9974 124.525 82.6841 124.523 84.4179Z" fill="#A373DD"/>
<path opacity="0.1" d="M114.512 79.3604C114.097 79.5377 113.697 79.7472 113.314 79.9868C113.059 80.1251 112.84 80.3201 112.673 80.5566C112.591 80.6758 112.545 80.8164 112.543 80.9609C112.54 81.1055 112.58 81.2476 112.658 81.3697C112.854 81.635 113.23 81.6743 113.562 81.6939C113.91 81.7379 114.264 81.7027 114.597 81.5907C114.821 81.4805 115.025 81.3336 115.201 81.156L115.891 80.5345C116.139 80.3184 116.386 80.0211 116.29 79.7166C116.233 79.6078 116.149 79.5149 116.047 79.4462C115.944 79.3776 115.826 79.3354 115.703 79.3235C115.108 79.2084 114.491 79.3161 113.97 79.6257" fill="black"/>
<g opacity="0.1">
<path opacity="0.1" d="M111.629 87.9846C111.862 87.9846 112.052 87.7966 112.052 87.5646C112.052 87.3326 111.862 87.1445 111.629 87.1445C111.395 87.1445 111.205 87.3326 111.205 87.5646C111.205 87.7966 111.395 87.9846 111.629 87.9846Z" fill="black"/>
</g>
<g opacity="0.1">
<path opacity="0.1" d="M123.057 89.0063C122.366 89.9823 121.463 90.7916 120.414 91.3741C119.365 91.9566 118.197 92.2975 116.998 92.3715C116.998 92.2609 116.983 92.1504 116.983 92.0374C116.983 91.3379 117.18 90.6523 117.55 90.057C117.92 89.4617 118.45 88.9801 119.08 88.6659C119.709 88.3516 120.415 88.2171 121.117 88.2772C121.819 88.3373 122.491 88.5897 123.057 89.0063Z" fill="black"/>
</g>
<path d="M11.5048 121.973C11.0255 121.345 10.4246 120.817 9.73738 120.421C8.94859 119.962 8.06361 119.69 7.15138 119.625C6.23915 119.561 5.3243 119.707 4.47809 120.051C3.63189 120.395 2.87717 120.929 2.27275 121.61C1.66832 122.291 1.2305 123.101 0.993381 123.977C0.756268 124.854 0.726267 125.773 0.905714 126.663C1.08516 127.552 1.46921 128.389 2.02795 129.108C2.58669 129.826 3.30503 130.407 4.12701 130.804C4.949 131.202 5.85243 131.406 6.76693 131.401C6.89318 131.401 7.01447 131.401 7.14319 131.389C8.20975 131.317 9.23719 130.962 10.1172 130.36C10.9972 129.757 11.6971 128.931 12.1432 127.967C12.5892 127.003 12.7649 125.937 12.6517 124.882C12.5385 123.828 12.1405 122.823 11.4999 121.973H11.5048Z" fill="url(#paint9_linear)"/>
<path opacity="0.2" d="M12.3761 125.518C12.3758 126.932 11.8328 128.293 10.8575 129.323C9.88217 130.354 8.54784 130.978 7.12582 131.067C7.00948 131.067 6.87828 131.067 6.77184 131.067C5.91234 131.067 5.0644 130.87 4.29361 130.493C3.52281 130.116 2.84981 129.567 2.32666 128.891C1.8035 128.214 1.44422 127.427 1.27658 126.59C1.10894 125.754 1.13744 124.89 1.35988 124.066C1.58232 123.243 1.99273 122.481 2.55938 121.839C3.12604 121.198 3.83374 120.695 4.62777 120.368C5.4218 120.042 6.28086 119.901 7.13854 119.956C7.99621 120.012 8.8295 120.263 9.57397 120.689C10.224 121.064 10.7914 121.565 11.2424 122.163C11.9804 123.128 12.3787 124.307 12.3761 125.518Z" fill="#A373DD"/>
<path opacity="0.1" d="M5.3906 121.991C5.10114 122.113 4.82216 122.258 4.5564 122.425C4.37923 122.524 4.2262 122.659 4.10836 122.823C4.05337 122.908 4.02411 123.006 4.02411 123.107C4.02411 123.208 4.05337 123.306 4.10836 123.391C4.19051 123.471 4.28924 123.533 4.39778 123.572C4.50631 123.611 4.62207 123.626 4.7371 123.617C4.98036 123.648 5.22758 123.624 5.45991 123.546C5.6173 123.468 5.76041 123.365 5.8832 123.241L6.36342 122.809C6.53174 122.656 6.71492 122.45 6.64066 122.239C6.60279 122.161 6.54513 122.095 6.47346 122.047C6.40179 121.999 6.31861 121.97 6.23223 121.964C5.8179 121.883 5.3882 121.958 5.02672 122.175" fill="black"/>
<g opacity="0.1">
<path opacity="0.1" d="M3.37812 128.004C3.5408 128.004 3.67268 127.873 3.67268 127.711C3.67268 127.55 3.5408 127.419 3.37812 127.419C3.21544 127.419 3.08356 127.55 3.08356 127.711C3.08356 127.873 3.21544 128.004 3.37812 128.004Z" fill="black"/>
</g>
<g opacity="0.1">
<path opacity="0.1" d="M9.37598 126.933C9.9734 126.933 10.4577 126.452 10.4577 125.859C10.4577 125.266 9.9734 124.786 9.37598 124.786C8.77856 124.786 8.29425 125.266 8.29425 125.859C8.29425 126.452 8.77856 126.933 9.37598 126.933Z" fill="black"/>
</g>
<g opacity="0.1">
<path opacity="0.1" d="M11.2449 122.167C11.2426 122.451 11.1582 122.727 11.0018 122.964C10.8454 123.201 10.6235 123.388 10.3628 123.503C10.1021 123.618 9.81346 123.656 9.53152 123.612C9.24957 123.569 8.98622 123.445 8.77297 123.257C8.55971 123.069 8.40557 122.824 8.32898 122.551C8.25239 122.279 8.2566 121.99 8.34109 121.719C8.42559 121.449 8.5868 121.208 8.80544 121.026C9.02409 120.845 9.2909 120.729 9.57399 120.694C10.2249 121.069 10.7932 121.57 11.2449 122.167Z" fill="black"/>
</g>
<g opacity="0.1">
<path opacity="0.1" d="M11.3538 128.718C10.8716 129.399 10.2413 129.964 9.50943 130.37C8.77757 130.777 7.96294 131.015 7.12585 131.067C7.12585 130.99 7.12585 130.912 7.12585 130.821C7.1263 130.333 7.26328 129.855 7.52154 129.439C7.77979 129.024 8.14919 128.688 8.58855 128.469C9.02791 128.249 9.52 128.156 10.01 128.197C10.5 128.239 10.9686 128.415 11.3637 128.706L11.3538 128.718Z" fill="black"/>
</g>
<defs>
<linearGradient id="paint0_linear" x1="12.416" y1="165.91" x2="12.416" y2="159.133" gradientUnits="userSpaceOnUse">
<stop stop-color="#808080" stop-opacity="0.25"/>
<stop offset="0.54" stop-color="#808080" stop-opacity="0.12"/>
<stop offset="1" stop-color="#808080" stop-opacity="0.1"/>
</linearGradient>
<linearGradient id="paint1_linear" x1="4382.1" y1="3343.43" x2="4382.1" y2="3213.1" gradientUnits="userSpaceOnUse">
<stop stop-color="#808080" stop-opacity="0.25"/>
<stop offset="0.54" stop-color="#808080" stop-opacity="0.12"/>
<stop offset="1" stop-color="#808080" stop-opacity="0.1"/>
</linearGradient>
<linearGradient id="paint2_linear" x1="40125.3" y1="115378" x2="40125.3" y2="6997.78" gradientUnits="userSpaceOnUse">
<stop stop-color="#808080" stop-opacity="0.25"/>
<stop offset="0.54" stop-color="#808080" stop-opacity="0.12"/>
<stop offset="1" stop-color="#808080" stop-opacity="0.1"/>
</linearGradient>
<linearGradient id="paint3_linear" x1="37.9369" y1="143.754" x2="37.9369" y2="159.573" gradientUnits="userSpaceOnUse">
<stop stop-color="#E0E0E0"/>
<stop offset="0.31" stop-color="#FCCC63"/>
<stop offset="0.77" stop-color="#F55F44"/>
</linearGradient>
<linearGradient id="paint4_linear" x1="3189.8" y1="10080.2" x2="3189.8" y2="11098.9" gradientUnits="userSpaceOnUse">
<stop stop-color="#E0E0E0"/>
<stop offset="0.31" stop-color="#FCCC63"/>
<stop offset="0.77" stop-color="#F55F44"/>
</linearGradient>
<linearGradient id="paint5_linear" x1="68.7201" y1="143.78" x2="68.7201" y2="159.599" gradientUnits="userSpaceOnUse">
<stop stop-color="#E0E0E0"/>
<stop offset="0.31" stop-color="#FCCC63"/>
<stop offset="0.77" stop-color="#F55F44"/>
</linearGradient>
<linearGradient id="paint6_linear" x1="88.1739" y1="143.78" x2="88.1739" y2="159.599" gradientUnits="userSpaceOnUse">
<stop stop-color="#E0E0E0"/>
<stop offset="0.31" stop-color="#FCCC63"/>
<stop offset="0.77" stop-color="#F55F44"/>
</linearGradient>
<linearGradient id="paint7_linear" x1="56.8316" y1="143.78" x2="56.8316" y2="159.599" gradientUnits="userSpaceOnUse">
<stop stop-color="#E0E0E0"/>
<stop offset="0.31" stop-color="#FCCC63"/>
<stop offset="0.77" stop-color="#F55F44"/>
</linearGradient>
<linearGradient id="paint8_linear" x1="13123.5" y1="6977.75" x2="13123.5" y2="5819.79" gradientUnits="userSpaceOnUse">
<stop stop-color="#808080" stop-opacity="0.25"/>
<stop offset="0.54" stop-color="#808080" stop-opacity="0.12"/>
<stop offset="1" stop-color="#808080" stop-opacity="0.1"/>
</linearGradient>
<linearGradient id="paint9_linear" x1="3938.59" y1="6932.71" x2="3938.59" y2="6367.83" gradientUnits="userSpaceOnUse">
<stop stop-color="#808080" stop-opacity="0.25"/>
<stop offset="0.54" stop-color="#808080" stop-opacity="0.12"/>
<stop offset="1" stop-color="#808080" stop-opacity="0.1"/>
</linearGradient>
</defs>
</svg>
