<svg width="242" height="182" viewBox="0 0 242 182" fill="none" xmlns="http://www.w3.org/2000/svg">
<g clip-path="url(#clip0)">
<path d="M139.458 8.85798C141.533 13.2589 137.135 14.5055 132.096 16.8644C127.058 19.2232 123.287 21.8011 121.211 17.4002C119.136 12.9992 117.451 4.2641 124.579 0.927081C131.953 -2.5249 137.382 4.45702 139.458 8.85798Z" fill="#3D3D73"/>
<path d="M129.178 17.5129C132.924 17.5129 135.961 14.4874 135.961 10.7551C135.961 7.0229 132.924 3.99732 129.178 3.99732C125.431 3.99732 122.394 7.0229 122.394 10.7551C122.394 14.4874 125.431 17.5129 129.178 17.5129Z" fill="#FFB8B8"/>
<path d="M162.782 40.7246C162.547 40.4192 162.312 40.1193 162.075 39.8277C161.768 39.448 161.46 39.0802 161.15 38.7243C157.634 34.6825 153.895 32.1374 149.777 31.865H149.772L149.711 31.8595L141.506 39.8277L138.716 42.5351L138.777 42.6837L140.282 46.4174H166.654C165.466 44.4527 164.173 42.5524 162.782 40.7246Z" fill="#3D3D73"/>
<path d="M121.802 13.4758L124.23 12.3391L123.891 8.84933L125.515 11.7373L126.675 11.194L126.478 9.15831L127.425 10.8429L136.049 6.80588C135.239 5.08873 133.777 3.76245 131.986 3.1188C130.194 2.47516 128.22 2.56688 126.496 3.37377L125.246 3.95886C123.523 4.76577 122.192 6.22175 121.546 8.00653C120.9 9.7913 120.992 11.7587 121.802 13.4758Z" fill="#3D3D73"/>
<path d="M177.999 136.141H36.3681C35.16 136.14 34.0018 135.661 33.1475 134.81C32.2932 133.959 31.8127 132.805 31.8113 131.601V46.8147C31.8123 45.9329 32.1644 45.0875 32.7902 44.4639C33.416 43.8404 34.2646 43.4896 35.1497 43.4886H179.159C180.06 43.4896 180.923 43.8465 181.56 44.4808C182.196 45.1151 182.555 45.9751 182.556 46.8722V131.601C182.554 132.805 182.074 133.959 181.219 134.81C180.365 135.661 179.207 136.14 177.999 136.141Z" fill="#F2F2F2"/>
<path d="M40.7869 131.601H173.58C174.752 131.601 175.876 131.137 176.705 130.312C177.533 129.486 177.999 128.366 177.999 127.199V55.2357C177.999 54.0681 177.533 52.9484 176.705 52.1228C175.876 51.2972 174.752 50.8334 173.58 50.8334H40.7869C39.615 50.8334 38.491 51.2972 37.6624 52.1228C36.8337 52.9484 36.3682 54.0681 36.3682 55.2357V127.199C36.3682 128.366 36.8337 129.486 37.6624 130.312C38.491 131.137 39.615 131.601 40.7869 131.601Z" fill="white"/>
<path d="M182.492 46.555H31.7474V44.2437C31.7492 43.036 32.2317 41.8784 33.089 41.0248C33.9464 40.1711 35.1087 39.6911 36.3208 39.6901H177.919C179.131 39.6911 180.293 40.1711 181.151 41.0247C182.008 41.8784 182.49 43.036 182.492 44.2437V46.555Z" fill="#854DCE"/>
<path d="M40.0588 44.308C40.7121 44.308 41.2418 43.7803 41.2418 43.1294C41.2418 42.4785 40.7121 41.9508 40.0588 41.9508C39.4055 41.9508 38.8759 42.4785 38.8759 43.1294C38.8759 43.7803 39.4055 44.308 40.0588 44.308Z" fill="white"/>
<path d="M44.549 44.308C45.2024 44.308 45.732 43.7803 45.732 43.1294C45.732 42.4785 45.2024 41.9508 44.549 41.9508C43.8957 41.9508 43.3661 42.4785 43.3661 43.1294C43.3661 43.7803 43.8957 44.308 44.549 44.308Z" fill="white"/>
<path d="M49.0392 44.308C49.6926 44.308 50.2222 43.7803 50.2222 43.1294C50.2222 42.4785 49.6926 41.9508 49.0392 41.9508C48.3859 41.9508 47.8563 42.4785 47.8563 43.1294C47.8563 43.7803 48.3859 44.308 49.0392 44.308Z" fill="white"/>
<path d="M111.327 115.995H99.4517C98.7561 115.994 98.0893 115.718 97.5974 115.228C97.1056 114.738 96.8289 114.074 96.8281 113.381V101.55C96.8289 100.857 97.1056 100.192 97.5974 99.7023C98.0893 99.2123 98.7561 98.9367 99.4517 98.9359H111.327C112.023 98.9367 112.689 99.2123 113.181 99.7023C113.673 100.192 113.95 100.857 113.951 101.55V113.381C113.95 114.074 113.673 114.738 113.181 115.228C112.689 115.718 112.023 115.994 111.327 115.995ZM99.4517 99.4862C98.9026 99.4868 98.3761 99.7044 97.9878 100.091C97.5995 100.478 97.381 101.003 97.3804 101.55V113.381C97.381 113.928 97.5995 114.453 97.9878 114.839C98.3761 115.226 98.9026 115.444 99.4517 115.445H111.327C111.876 115.444 112.403 115.226 112.791 114.839C113.179 114.453 113.398 113.928 113.398 113.381V101.55C113.398 101.003 113.179 100.478 112.791 100.091C112.403 99.7044 111.876 99.4868 111.327 99.4862H99.4517Z" fill="#CCCCCC"/>
<path d="M108.98 112.693H101.799C101.579 112.693 101.369 112.606 101.214 112.451C101.058 112.296 100.971 112.086 100.971 111.868V103.063C100.971 102.844 101.058 102.634 101.214 102.48C101.369 102.325 101.579 102.238 101.799 102.238H107.002C107.191 102.238 107.374 102.302 107.521 102.42L109.498 104.003C109.595 104.08 109.673 104.178 109.727 104.289C109.781 104.401 109.808 104.523 109.808 104.646V111.868C109.808 112.086 109.72 112.296 109.565 112.451C109.41 112.606 109.199 112.693 108.98 112.693ZM101.799 102.788C101.726 102.788 101.656 102.817 101.604 102.869C101.552 102.92 101.523 102.99 101.523 103.063V111.868C101.523 111.941 101.552 112.011 101.604 112.062C101.656 112.114 101.726 112.143 101.799 112.143H108.98C109.053 112.143 109.123 112.114 109.175 112.062C109.227 112.011 109.256 111.941 109.256 111.868V104.646C109.256 104.605 109.247 104.564 109.229 104.527C109.211 104.49 109.185 104.457 109.153 104.432L107.175 102.848C107.126 102.809 107.065 102.788 107.002 102.788H101.799Z" fill="#CCCCCC"/>
<path d="M107.599 106.09H103.18C103.107 106.09 103.036 106.061 102.985 106.009C102.933 105.957 102.904 105.887 102.904 105.814C102.904 105.742 102.933 105.672 102.985 105.62C103.036 105.568 103.107 105.539 103.18 105.539H107.599C107.672 105.539 107.742 105.568 107.794 105.62C107.846 105.672 107.875 105.742 107.875 105.814C107.875 105.887 107.846 105.957 107.794 106.009C107.742 106.061 107.672 106.09 107.599 106.09Z" fill="#CCCCCC"/>
<path d="M107.599 107.74H103.18C103.107 107.74 103.036 107.711 102.985 107.66C102.933 107.608 102.904 107.538 102.904 107.465C102.904 107.392 102.933 107.322 102.985 107.271C103.036 107.219 103.107 107.19 103.18 107.19H107.599C107.672 107.19 107.742 107.219 107.794 107.271C107.846 107.322 107.875 107.392 107.875 107.465C107.875 107.538 107.846 107.608 107.794 107.66C107.742 107.711 107.672 107.74 107.599 107.74Z" fill="#CCCCCC"/>
<path d="M107.599 109.391H103.18C103.107 109.391 103.036 109.362 102.985 109.311C102.933 109.259 102.904 109.189 102.904 109.116C102.904 109.043 102.933 108.973 102.985 108.922C103.036 108.87 103.107 108.841 103.18 108.841H107.599C107.672 108.841 107.742 108.87 107.794 108.922C107.846 108.973 107.875 109.043 107.875 109.116C107.875 109.189 107.846 109.259 107.794 109.311C107.742 109.362 107.672 109.391 107.599 109.391Z" fill="#CCCCCC"/>
<path d="M139.496 115.995H127.621C126.925 115.994 126.259 115.718 125.767 115.228C125.275 114.738 124.998 114.074 124.997 113.381V101.55C124.998 100.857 125.275 100.192 125.767 99.7023C126.259 99.2123 126.925 98.9367 127.621 98.9359H139.496C140.192 98.9367 140.859 99.2123 141.351 99.7023C141.842 100.192 142.119 100.857 142.12 101.55V113.381C142.119 114.074 141.842 114.738 141.351 115.228C140.859 115.718 140.192 115.994 139.496 115.995ZM127.621 99.4862C127.072 99.4868 126.545 99.7044 126.157 100.091C125.769 100.478 125.55 101.003 125.55 101.55V113.381C125.55 113.928 125.769 114.453 126.157 114.839C126.545 115.226 127.072 115.444 127.621 115.445H139.496C140.045 115.444 140.572 115.226 140.96 114.839C141.349 114.453 141.567 113.928 141.568 113.381V101.55C141.567 101.003 141.349 100.478 140.96 100.091C140.572 99.7044 140.045 99.4868 139.496 99.4862H127.621Z" fill="#CCCCCC"/>
<path d="M137.425 110.492H129.692C129.473 110.492 129.262 110.405 129.107 110.25C128.951 110.095 128.864 109.885 128.864 109.666V105.264C128.864 105.045 128.951 104.835 129.107 104.681C129.262 104.526 129.473 104.439 129.692 104.439H137.425C137.645 104.439 137.855 104.526 138.011 104.681C138.166 104.835 138.253 105.045 138.254 105.264V109.666C138.253 109.885 138.166 110.095 138.011 110.25C137.855 110.405 137.645 110.492 137.425 110.492ZM129.692 104.989C129.619 104.989 129.549 105.018 129.497 105.07C129.445 105.121 129.416 105.191 129.416 105.264V109.666C129.416 109.739 129.445 109.809 129.497 109.861C129.549 109.913 129.619 109.942 129.692 109.942H137.425C137.498 109.942 137.568 109.913 137.62 109.861C137.672 109.809 137.701 109.739 137.701 109.666V105.264C137.701 105.191 137.672 105.121 137.62 105.07C137.568 105.018 137.498 104.989 137.425 104.989H129.692Z" fill="#CCCCCC"/>
<path d="M133.559 108.191C133.404 108.191 133.251 108.148 133.12 108.067L128.994 105.498C128.932 105.459 128.888 105.397 128.871 105.326C128.855 105.255 128.867 105.18 128.906 105.119C128.945 105.057 129.007 105.013 129.078 104.996C129.149 104.98 129.224 104.992 129.286 105.031L133.413 107.6C133.456 107.627 133.507 107.641 133.559 107.641C133.611 107.641 133.661 107.627 133.705 107.6L137.831 105.031C137.893 104.992 137.968 104.98 138.039 104.996C138.111 105.013 138.172 105.057 138.211 105.119C138.25 105.18 138.263 105.255 138.246 105.326C138.23 105.397 138.186 105.459 138.124 105.498L133.998 108.067C133.866 108.148 133.714 108.192 133.559 108.191Z" fill="#CCCCCC"/>
<path d="M83.1576 115.995H71.2823C70.5867 115.994 69.9199 115.718 69.428 115.228C68.9362 114.738 68.6595 114.074 68.6587 113.381V101.55C68.6595 100.857 68.9362 100.192 69.428 99.7023C69.9199 99.2123 70.5867 98.9367 71.2823 98.9359H83.1576C83.8532 98.9367 84.5201 99.2123 85.0119 99.7023C85.5038 100.192 85.7805 100.857 85.7812 101.55V113.381C85.7805 114.074 85.5038 114.738 85.0119 115.228C84.5201 115.718 83.8532 115.994 83.1576 115.995ZM71.2823 99.4862C70.7332 99.4868 70.2067 99.7044 69.8184 100.091C69.4301 100.478 69.2116 101.003 69.211 101.55V113.381C69.2116 113.928 69.4301 114.453 69.8184 114.839C70.2067 115.226 70.7332 115.444 71.2823 115.445H83.1576C83.7068 115.444 84.2333 115.226 84.6216 114.839C85.0099 114.453 85.2283 113.928 85.2289 113.381V101.55C85.2283 101.003 85.0099 100.478 84.6216 100.091C84.2333 99.7044 83.7068 99.4868 83.1576 99.4862H71.2823Z" fill="#CCCCCC"/>
<path d="M81.0864 110.492H73.3536C73.1339 110.492 72.9233 110.405 72.768 110.25C72.6127 110.095 72.5253 109.885 72.5251 109.666V105.264C72.5253 105.045 72.6127 104.835 72.768 104.681C72.9233 104.526 73.1339 104.439 73.3536 104.439H81.0864C81.306 104.439 81.5166 104.526 81.6719 104.681C81.8273 104.835 81.9146 105.045 81.9149 105.264V109.666C81.9146 109.885 81.8273 110.095 81.6719 110.25C81.5166 110.405 81.306 110.492 81.0864 110.492ZM73.3536 104.989C73.2804 104.989 73.2102 105.018 73.1584 105.07C73.1066 105.121 73.0775 105.191 73.0774 105.264V109.666C73.0775 109.739 73.1066 109.809 73.1584 109.861C73.2102 109.913 73.2804 109.942 73.3536 109.942H81.0864C81.1596 109.942 81.2298 109.913 81.2816 109.861C81.3333 109.809 81.3625 109.739 81.3625 109.666V105.264C81.3625 105.191 81.3333 105.121 81.2816 105.07C81.2298 105.018 81.1596 104.989 81.0864 104.989H73.3536Z" fill="#CCCCCC"/>
<path d="M79.8607 110.492H74.3031C74.2061 110.492 74.1108 110.467 74.0268 110.418C73.9429 110.37 73.8731 110.3 73.8246 110.217C73.7762 110.133 73.7507 110.038 73.7507 109.942C73.7507 109.845 73.7762 109.75 73.8248 109.666L75.4988 106.777C75.5473 106.694 75.617 106.624 75.701 106.576C75.7849 106.528 75.8802 106.502 75.9771 106.502C76.0741 106.502 76.1694 106.528 76.2533 106.576C76.3373 106.624 76.407 106.694 76.4555 106.777L77.5367 108.643L78.1631 107.562C78.2116 107.479 78.2813 107.409 78.3653 107.361C78.4493 107.313 78.5445 107.287 78.6415 107.287C78.7384 107.287 78.8337 107.313 78.9177 107.361C79.0016 107.409 79.0714 107.479 79.1198 107.562L80.3391 109.666C80.3876 109.75 80.4131 109.845 80.4131 109.942C80.4131 110.038 80.3876 110.133 80.3391 110.217C80.2906 110.3 80.2209 110.37 80.1369 110.418C80.0529 110.467 79.9577 110.492 79.8607 110.492H79.8607ZM79.8607 109.942L78.6414 107.837L77.776 109.331C77.7517 109.373 77.7169 109.408 77.6749 109.432C77.6329 109.456 77.5852 109.469 77.5367 109.469C77.4883 109.469 77.4406 109.456 77.3986 109.432C77.3566 109.408 77.3218 109.373 77.2975 109.331L75.9772 107.053L74.3031 109.942H79.8607Z" fill="#CCCCCC"/>
<path d="M80.2578 106.64C80.5629 106.64 80.8102 106.394 80.8102 106.09C80.8102 105.786 80.5629 105.539 80.2578 105.539C79.9528 105.539 79.7055 105.786 79.7055 106.09C79.7055 106.394 79.9528 106.64 80.2578 106.64Z" fill="#CCCCCC"/>
<path d="M212.326 178.334L208.941 178.334L207.33 165.323L212.327 165.323L212.326 178.334Z" fill="#FFB8B8"/>
<path d="M213.19 181.604L202.273 181.604V181.466C202.273 180.91 202.383 180.36 202.596 179.846C202.81 179.332 203.123 178.866 203.517 178.473C203.912 178.079 204.38 177.768 204.896 177.555C205.411 177.342 205.964 177.233 206.522 177.233H206.522L213.19 177.233L213.19 181.604Z" fill="#3D3D73"/>
<path d="M226.135 178.334L222.749 178.334L221.138 165.323L226.135 165.323L226.135 178.334Z" fill="#FFB8B8"/>
<path d="M226.998 181.604L216.081 181.604V181.466C216.081 180.91 216.191 180.36 216.405 179.846C216.618 179.332 216.931 178.866 217.326 178.473C217.72 178.079 218.189 177.768 218.704 177.555C219.22 177.342 219.772 177.233 220.331 177.233H220.331L226.999 177.233L226.998 181.604Z" fill="#3D3D73"/>
<path d="M225.12 172.694L221.984 171.744C221.75 171.673 221.543 171.535 221.387 171.348C221.232 171.16 221.135 170.931 221.11 170.689L218.186 143.085C218.184 143.051 218.169 143.02 218.145 142.997C218.12 142.975 218.088 142.962 218.054 142.962C218.021 142.959 217.987 142.969 217.961 142.99C217.934 143.011 217.917 143.041 217.913 143.074L213.016 169.818C212.987 169.98 212.925 170.135 212.834 170.273C212.744 170.411 212.626 170.53 212.489 170.622C212.352 170.714 212.197 170.778 212.035 170.81C211.873 170.842 211.705 170.842 211.543 170.809L207.536 169.986C207.242 169.925 206.98 169.76 206.798 169.522C206.616 169.284 206.527 168.988 206.546 168.69L209.525 124.856L229.724 122.684L226.722 171.585C226.703 171.899 226.564 172.194 226.334 172.41C226.104 172.626 225.8 172.747 225.484 172.748C225.36 172.748 225.238 172.73 225.12 172.694Z" fill="#3D3D73"/>
<path d="M225.101 86.6834C228.847 86.6834 231.884 83.6578 231.884 79.9256C231.884 76.1934 228.847 73.1678 225.101 73.1678C221.355 73.1678 218.318 76.1934 218.318 79.9256C218.318 83.6578 221.355 86.6834 225.101 86.6834Z" fill="#FFB8B8"/>
<path d="M209.494 125.113L213.873 97.6398C214.106 96.1791 214.649 94.7845 215.465 93.5489C216.281 92.3133 217.351 91.265 218.606 90.4737C219.86 89.6824 221.269 89.1663 222.739 88.9597C224.209 88.7531 225.706 88.8608 227.131 89.2756C229.623 89.9935 231.756 91.611 233.114 93.8121C234.473 96.0132 234.959 98.6399 234.478 101.179L229.896 125.714L209.494 125.113Z" fill="#854DCE"/>
<path d="M226.973 130.029C227.312 129.806 227.598 129.512 227.81 129.167C228.022 128.822 228.156 128.435 228.202 128.034C228.248 127.632 228.205 127.225 228.076 126.841C227.947 126.458 227.736 126.107 227.456 125.814L231.984 117.078L226.885 117.62L223.366 125.833C222.903 126.333 222.64 126.986 222.628 127.667C222.616 128.348 222.854 129.01 223.299 129.527C223.744 130.044 224.363 130.381 225.04 130.474C225.718 130.566 226.405 130.408 226.973 130.029V130.029Z" fill="#FFB8B8"/>
<path d="M227.943 124.273C227.692 124.237 227.459 124.127 227.273 123.956L225.54 122.361C225.353 122.188 225.224 121.962 225.17 121.713C225.116 121.464 225.14 121.205 225.239 120.971L228.701 112.794L228.21 96.6374C228.281 96.118 228.453 95.6176 228.718 95.1648C228.983 94.7119 229.335 94.3155 229.754 93.9982C230.172 93.6809 230.65 93.4489 231.158 93.3155C231.667 93.1821 232.197 93.1499 232.718 93.2208C233.24 93.2916 233.742 93.4641 234.196 93.7284C234.65 93.9926 235.048 94.3435 235.366 94.761C235.684 95.1784 235.916 95.6542 236.05 96.1612C236.183 96.6681 236.215 97.1963 236.144 97.7155L236.983 107.872C237.239 110.954 236.362 114.024 234.515 116.51L229.115 123.783C229.012 123.923 228.879 124.039 228.727 124.125C228.575 124.21 228.407 124.263 228.233 124.279C228.136 124.289 228.039 124.286 227.943 124.273Z" fill="#854DCE"/>
<path d="M186.039 76.2437C186.113 76.6415 186.274 77.0182 186.51 77.3474C186.746 77.6767 187.051 77.9504 187.405 78.1492C187.758 78.3481 188.151 78.4674 188.556 78.4986C188.961 78.5298 189.367 78.4722 189.747 78.3299L196.057 85.8903L197.544 81.0005L191.324 74.5706C191.042 73.9504 190.541 73.455 189.917 73.1781C189.292 72.9013 188.587 72.8622 187.936 73.0685C187.285 73.2747 186.732 73.7119 186.382 74.2971C186.033 74.8823 185.911 75.5749 186.039 76.2437Z" fill="#FFB8B8"/>
<path d="M190.982 79.3776C191.112 79.1615 191.305 78.9901 191.536 78.8863L193.685 77.9187C193.918 77.8144 194.178 77.784 194.429 77.8315C194.68 77.879 194.91 78.0021 195.088 78.1842L201.296 84.5489L216.421 90.3975C216.873 90.6647 217.269 91.0182 217.584 91.4377C217.9 91.8573 218.129 92.3346 218.259 92.8425C218.389 93.3504 218.418 93.8789 218.342 94.3977C218.267 94.9166 218.091 95.4156 217.822 95.8662C217.553 96.3169 217.198 96.7103 216.776 97.0241C216.355 97.3378 215.875 97.5658 215.365 97.6948C214.856 97.8238 214.325 97.8515 213.804 97.7761C213.284 97.7008 212.783 97.5239 212.331 97.2556L202.616 94.0663C199.668 93.0988 197.172 91.0971 195.594 88.4336L190.977 80.6442C190.889 80.4944 190.832 80.3276 190.813 80.1548C190.793 79.982 190.81 79.807 190.863 79.6411C190.892 79.5489 190.932 79.4604 190.982 79.3776Z" fill="#854DCE"/>
<path opacity="0.1" d="M230.603 103.358L230.326 112.163L225.239 120.97L229.487 111.155L230.603 103.358Z" fill="black"/>
<path d="M224.324 81.1956C223.898 81.2508 223.466 81.15 223.109 80.9121C222.752 80.6741 222.494 80.3152 222.382 79.9018C222.274 79.4261 222.039 78.9885 221.701 78.6359C221.363 78.2833 220.935 78.0291 220.462 77.9005C219.218 77.6173 217.697 78.2008 216.786 77.2616C216.59 77.0472 216.449 76.7896 216.374 76.5101C216.298 76.2306 216.29 75.9372 216.351 75.6541C216.518 74.7414 217.174 74.0519 217.887 73.5004C219.388 72.3453 221.204 71.6691 223.097 71.5604C224.077 71.5322 225.058 71.5808 226.03 71.7058C227.049 71.7698 228.056 71.9532 229.031 72.2521C230.141 72.6697 231.129 73.3596 231.901 74.2579C232.674 75.1563 233.206 76.2341 233.45 77.3918C233.673 78.5531 233.638 79.7488 233.35 80.8956C233.061 82.0423 232.524 83.1124 231.777 84.0311C230.883 85.1405 229.73 86.015 228.419 86.5786C228.106 86.7255 227.748 86.7436 227.423 86.6289C226.606 86.3054 226.739 85.2975 227.112 84.6252C227.51 83.9058 228.124 83.2092 227.803 82.3336C227.642 81.9276 227.334 81.5969 226.939 81.4075C226.127 80.9949 225.219 81.0925 224.347 81.193L224.324 81.1956Z" fill="#3D3D73"/>
<path d="M183.773 85.0118H99.8171C98.6089 85.0105 97.4507 84.5317 96.5964 83.6806C95.7421 82.8295 95.2616 81.6756 95.2603 80.472V62.5876C95.2616 61.384 95.7421 60.2301 96.5964 59.379C97.4507 58.5279 98.6089 58.0491 99.8171 58.0478H183.773C184.981 58.0491 186.139 58.5279 186.993 59.379C187.848 60.2301 188.328 61.384 188.33 62.5876V80.472C188.328 81.6756 187.848 82.8295 186.993 83.6806C186.139 84.5317 184.981 85.0105 183.773 85.0118Z" fill="white"/>
<path d="M183.773 85.1494H99.817C98.5722 85.148 97.3789 84.6548 96.4987 83.7779C95.6186 82.901 95.1235 81.7121 95.1221 80.472V62.5876C95.1235 61.3475 95.6186 60.1586 96.4987 59.2817C97.3789 58.4049 98.5722 57.9116 99.817 57.9102H183.773C185.017 57.9116 186.211 58.4049 187.091 59.2817C187.971 60.1586 188.466 61.3475 188.468 62.5876V80.472C188.466 81.7121 187.971 82.901 187.091 83.7779C186.211 84.6548 185.017 85.148 183.773 85.1494ZM99.817 58.4605C98.7187 58.4617 97.6657 58.897 96.8891 59.6707C96.1125 60.4444 95.6757 61.4934 95.6744 62.5876V80.472C95.6757 81.5662 96.1125 82.6152 96.8891 83.389C97.6657 84.1627 98.7187 84.5979 99.817 84.5991H183.773C184.871 84.5979 185.924 84.1627 186.701 83.389C187.477 82.6152 187.914 81.5662 187.915 80.472V62.5876C187.914 61.4934 187.477 60.4444 186.701 59.6707C185.924 58.897 184.871 58.4617 183.773 58.4605H99.817Z" fill="#3F3D56"/>
<path d="M173.554 80.6096H110.035C108.827 80.6082 107.669 80.1295 106.815 79.2784C105.96 78.4273 105.48 77.2733 105.478 76.0697V66.7148C105.48 65.5112 105.96 64.3572 106.815 63.5061C107.669 62.6551 108.827 62.1763 110.035 62.1749H173.554C174.762 62.1763 175.921 62.6551 176.775 63.5061C177.629 64.3572 178.11 65.5112 178.111 66.7148V76.0697C178.11 77.2733 177.629 78.4273 176.775 79.2784C175.921 80.1295 174.762 80.6082 173.554 80.6096Z" fill="#F2F2F2"/>
<path d="M123.704 75.5674C126.714 75.5674 129.154 73.1366 129.154 70.1382C129.154 67.1397 126.714 64.709 123.704 64.709C120.695 64.709 118.255 67.1397 118.255 70.1382C118.255 73.1366 120.695 75.5674 123.704 75.5674Z" fill="#A373DD"/>
<path d="M169.607 80.0617L161.915 73.6344L154.356 67.3181C154.156 67.1515 153.904 67.0603 153.644 67.0608C153.383 67.0613 153.132 67.1534 152.933 67.3209L145.398 73.6662L143.558 75.2161L140.783 72.8974L132.349 65.8507C132.15 65.684 131.897 65.5929 131.637 65.5934C131.377 65.5939 131.125 65.686 130.926 65.8534L122.52 72.9324L113.982 80.1229C113.938 80.1593 113.907 80.2081 113.893 80.2627C113.878 80.3172 113.881 80.3749 113.901 80.4279C113.92 80.4808 113.956 80.5265 114.002 80.5588C114.049 80.5911 114.104 80.6083 114.161 80.6082L131.666 80.5746L137.207 80.5639L137.153 80.6096L153.67 80.5779L169.43 80.5477C169.487 80.5476 169.542 80.5301 169.588 80.4977C169.635 80.4653 169.67 80.4194 169.689 80.3664C169.709 80.3133 169.711 80.2556 169.696 80.2011C169.682 80.1466 169.65 80.098 169.607 80.0617Z" fill="#3F3D56"/>
<path d="M241.724 182H188.699C188.626 182 188.556 181.971 188.504 181.919C188.452 181.868 188.423 181.798 188.423 181.725C188.423 181.652 188.452 181.582 188.504 181.53C188.556 181.479 188.626 181.45 188.699 181.45H241.724C241.797 181.45 241.867 181.479 241.919 181.53C241.971 181.582 242 181.652 242 181.725C242 181.798 241.971 181.868 241.919 181.919C241.867 181.971 241.797 182 241.724 182Z" fill="#CCCCCC"/>
<path d="M166.822 36.2948C166.602 35.9377 166.31 35.6291 165.966 35.3879C165.622 35.1466 165.232 34.9778 164.82 34.8916C164.669 34.86 164.516 34.8407 164.362 34.8338L143.32 16.091C142.907 15.6678 142.356 15.4054 141.765 15.3509C141.649 15.3376 141.532 15.3339 141.415 15.3399C140.929 15.3619 140.461 15.5243 140.066 15.8073C139.672 16.0904 139.369 16.4817 139.194 16.9336C139.02 17.3854 138.981 17.8781 139.083 18.3515C139.185 18.8249 139.423 19.2584 139.769 19.5991L147.824 26.596L161.053 38.0833C161.064 38.2996 161.096 38.5144 161.15 38.7243C161.308 39.3327 161.648 39.8787 162.125 40.2899C162.602 40.7012 163.193 40.9584 163.82 41.0273C164.392 41.0938 164.971 40.9985 165.491 40.7521C165.903 40.5601 166.269 40.2813 166.563 39.935C166.593 39.8992 166.621 39.8662 166.648 39.8277C167.034 39.3263 167.258 38.7195 167.289 38.0883C167.32 37.4571 167.157 36.8314 166.822 36.2948H166.822Z" fill="#FFB8B8"/>
<path d="M130.832 54.358L130.636 46.4174L130.47 39.8277L130.357 35.2163L130.133 26.2273C130.089 25.746 129.905 25.288 129.604 24.9092C129.303 24.5303 128.897 24.247 128.437 24.0938C127.977 23.9406 127.482 23.9242 127.013 24.0466C126.544 24.1689 126.12 24.4247 125.794 24.7828C125.718 24.8646 125.648 24.953 125.587 25.047C125.247 25.5321 125.094 26.1231 125.156 26.7116L125.648 39.8277L125.894 46.4174L126.209 54.823C126.118 54.9465 126.036 55.0761 125.963 55.2109C125.767 55.582 125.648 55.9889 125.614 56.407C125.58 56.8251 125.632 57.2457 125.767 57.6432C125.907 58.0601 126.135 58.4426 126.434 58.7656C126.733 59.0885 127.098 59.3446 127.504 59.517C127.91 59.6893 128.348 59.774 128.789 59.7655C129.231 59.7569 129.665 59.6553 130.064 59.4674C130.527 59.2491 130.93 58.9205 131.235 58.5105C131.541 58.1006 131.741 57.6219 131.816 57.1168C131.892 56.6118 131.842 56.0959 131.671 55.6147C131.499 55.1335 131.211 54.7019 130.832 54.358H130.832Z" fill="#FFB8B8"/>
<path d="M149.777 31.865L147.825 26.596L144.665 18.0611C144.437 17.4401 144.072 16.8782 143.596 16.4171C143.12 15.956 142.547 15.6076 141.917 15.3977C141.868 15.3812 141.815 15.3647 141.765 15.3509C141.156 15.1665 140.513 15.1158 139.882 15.2023C139.251 15.2887 138.646 15.5102 138.109 15.8516L127.468 22.5762C126.493 23.1906 125.797 24.1584 125.525 25.275C125.254 26.3917 125.428 27.5698 126.013 28.5605C127.343 30.853 128.793 33.0746 130.357 35.2162C131.597 36.8974 133.906 37.0762 134.306 39.8277H142.152L150.095 32.7234L149.777 31.865Z" fill="#A373DD"/>
<path d="M27.9387 96.2601C31.473 96.2601 34.338 93.4057 34.338 89.8846C34.338 86.3635 31.473 83.509 27.9387 83.509C24.4045 83.509 21.5394 86.3635 21.5394 89.8846C21.5394 93.4057 24.4045 96.2601 27.9387 96.2601Z" fill="#A0616A"/>
<path d="M43.649 85.496C43.7121 85.546 43.7732 85.599 43.8324 85.655C44.1263 85.9309 44.3585 86.2656 44.5136 86.6371C44.6687 87.0086 44.7432 87.4086 44.7324 87.8108C44.7215 88.213 44.6254 88.6084 44.4505 88.9711C44.2755 89.3337 44.0256 89.6555 43.7172 89.9152C43.6453 89.9754 43.5703 90.0317 43.4924 90.084L43.9255 104.651C43.9379 105.128 43.7955 105.596 43.5197 105.986C43.2438 106.376 42.8491 106.667 42.3942 106.816L42.3678 106.822L30.4956 108.081C30.1728 108.115 29.8464 108.086 29.5353 107.993C29.2242 107.901 28.9345 107.749 28.6829 107.544C28.4313 107.34 28.2228 107.088 28.0695 106.803C27.9162 106.518 27.8211 106.205 27.7897 105.884C27.7583 105.562 27.7912 105.237 27.8865 104.928C27.9818 104.619 28.1377 104.331 28.345 104.082C28.5524 103.834 28.8072 103.628 29.0947 103.478C29.3821 103.328 29.6966 103.236 30.02 103.208L38.483 102.465L39.9466 89.8495C39.8509 89.7651 39.7612 89.6741 39.6783 89.5771C39.2194 89.036 38.9787 88.3443 39.003 87.6364C39.0273 86.9284 39.3147 86.2547 39.8096 85.7461C40.3045 85.2374 40.9714 84.9302 41.681 84.884C42.3905 84.8378 43.0919 85.0559 43.649 85.496H43.649Z" fill="#A0616A"/>
<path d="M38.4782 178.616H41.6727L43.1922 166.341H38.4777L38.4782 178.616Z" fill="#A0616A"/>
<path d="M37.6636 177.577L43.9542 177.577H43.9544C44.4809 177.577 45.0022 177.68 45.4886 177.881C45.975 178.082 46.4169 178.376 46.7892 178.747C47.1614 179.117 47.4567 179.558 47.6582 180.042C47.8597 180.527 47.9633 181.046 47.9633 181.571V181.701L37.6638 181.701L37.6636 177.577Z" fill="#3D3D73"/>
<path d="M6.72919 174.216L9.47377 175.844L17.0831 166.072L13.0322 163.669L6.72919 174.216Z" fill="#A0616A"/>
<path d="M6.56263 172.908L11.9677 176.114L11.9679 176.114C12.4203 176.383 12.8152 176.737 13.13 177.158C13.4448 177.578 13.6735 178.056 13.8029 178.564C13.9323 179.073 13.9599 179.602 13.8842 180.121C13.8084 180.64 13.6308 181.139 13.3614 181.589L13.2948 181.701L4.44507 176.451L6.56263 172.908Z" fill="#3D3D73"/>
<path d="M42.4264 174.281H38.8495C38.5599 174.281 38.2804 174.174 38.065 173.981C37.8497 173.789 37.7138 173.523 37.6836 173.236L34.0776 139.465C34.0685 139.38 34.0316 139.301 33.9726 139.239C33.9135 139.177 33.8356 139.136 33.7509 139.122C33.6662 139.109 33.5793 139.123 33.5038 139.164C33.4282 139.204 33.3681 139.268 33.3328 139.346L26.8275 153.697L15.3102 172.408C15.1611 172.648 14.9303 172.826 14.6601 172.91C14.3898 172.994 14.0982 172.979 13.8385 172.866L9.23746 170.849C9.08532 170.783 8.94917 170.685 8.83801 170.561C8.72686 170.438 8.64325 170.293 8.59272 170.135C8.5422 169.977 8.52591 169.811 8.54495 169.646C8.56398 169.482 8.6179 169.323 8.70313 169.181L19.2907 151.519L22.5378 136.638C21.5165 130.184 25.8946 120.59 25.939 120.493L25.9607 120.446L38.0204 115.75L38.0809 115.824C42.8368 131.374 45.7349 148.107 43.5951 173.21C43.5687 173.501 43.4343 173.772 43.2183 173.97C43.0022 174.168 42.7199 174.279 42.4264 174.281Z" fill="#3D3D73"/>
<path d="M25.4748 122.019L25.4186 121.901C25.3918 121.845 22.7102 116.21 20.6431 110.188C20.2458 109.023 20.0957 107.789 20.2021 106.564C20.3085 105.338 20.6692 104.148 21.2613 103.069C21.8612 101.979 22.6818 101.024 23.6712 100.266C24.6606 99.5082 25.7973 98.9632 27.0092 98.6657C29.113 98.1633 31.328 98.4306 33.2506 99.4189C35.1732 100.407 36.6755 102.051 37.4837 104.05C39.1233 108.135 38.6008 112.496 38.109 115.925L38.0992 115.993L38.0365 116.023L25.4748 122.019Z" fill="#3F3D56"/>
<path d="M35.6976 86.2831H25.5362V81.8703C27.7665 80.9875 29.949 80.2368 31.2683 81.8703C32.443 81.8703 33.5696 82.3352 34.4003 83.1628C35.2309 83.9904 35.6976 85.1128 35.6976 86.2831V86.2831Z" fill="#3D3D73"/>
<path d="M24.9738 81.0916C18.8991 81.0916 17.1988 88.6776 17.1988 92.9572C17.1988 95.344 18.2822 96.1976 19.9847 96.4864L20.5859 93.2918L21.9941 96.6239C22.4724 96.6263 22.9748 96.6171 23.4956 96.6074L23.9731 95.628L25.0378 96.5899C29.3021 96.5962 32.7486 97.2155 32.7486 92.9572C32.7486 88.6776 31.2575 81.0916 24.9738 81.0916Z" fill="#3D3D73"/>
<path d="M53.3008 182H0.27617C0.202925 182 0.13268 181.971 0.0808881 181.919C0.0290962 181.868 0 181.798 0 181.725C0 181.652 0.0290962 181.582 0.0808881 181.53C0.13268 181.479 0.202925 181.45 0.27617 181.45H53.3008C53.3741 181.45 53.4443 181.479 53.4961 181.53C53.5479 181.582 53.577 181.652 53.577 181.725C53.577 181.798 53.5479 181.868 53.4961 181.919C53.4443 181.971 53.3741 182 53.3008 182Z" fill="#CCCCCC"/>
<path d="M54.2979 91.4778H42.4225C41.727 91.477 41.0601 91.2013 40.5682 90.7113C40.0764 90.2213 39.7997 89.5569 39.7989 88.8639V77.0327C39.7997 76.3397 40.0764 75.6753 40.5682 75.1853C41.0601 74.6953 41.727 74.4196 42.4225 74.4188H54.2979C54.9934 74.4196 55.6603 74.6953 56.1522 75.1853C56.644 75.6753 56.9207 76.3397 56.9215 77.0327V88.8639C56.9207 89.5569 56.644 90.2213 56.1522 90.7113C55.6603 91.2013 54.9934 91.477 54.2979 91.4778Z" fill="white"/>
<path d="M54.2979 91.4778H42.4225C41.727 91.477 41.0601 91.2013 40.5682 90.7113C40.0764 90.2213 39.7997 89.5569 39.7989 88.8639V77.0327C39.7997 76.3397 40.0764 75.6753 40.5682 75.1853C41.0601 74.6953 41.727 74.4196 42.4225 74.4188H54.2979C54.9934 74.4196 55.6603 74.6953 56.1522 75.1853C56.644 75.6753 56.9207 76.3397 56.9215 77.0327V88.8639C56.9207 89.5569 56.644 90.2213 56.1522 90.7113C55.6603 91.2013 54.9934 91.477 54.2979 91.4778ZM42.4225 74.9691C41.8734 74.9697 41.3469 75.1874 40.9586 75.5742C40.5703 75.9611 40.3519 76.4856 40.3513 77.0327V88.8639C40.3519 89.411 40.5703 89.9355 40.9586 90.3224C41.3469 90.7093 41.8734 90.9269 42.4225 90.9275H54.2979C54.847 90.9269 55.3735 90.7093 55.7618 90.3224C56.1501 89.9355 56.3685 89.411 56.3691 88.8639V77.0327C56.3685 76.4856 56.1501 75.9611 55.7618 75.5742C55.3735 75.1874 54.847 74.9697 54.2979 74.9691H42.4225Z" fill="#3F3D56"/>
<path d="M52.2266 86.6627H44.4938C44.2742 86.6625 44.0636 86.5754 43.9082 86.4207C43.7529 86.2659 43.6656 86.0561 43.6653 85.8373V80.0593C43.6656 79.8404 43.7529 79.6306 43.9082 79.4759C44.0636 79.3211 44.2742 79.2341 44.4938 79.2338H46.6707C46.8123 79.2333 46.9516 79.2692 47.0752 79.338C47.1988 79.4068 47.3025 79.5062 47.3764 79.6265L47.9834 80.6096H52.2266C52.4463 80.6098 52.6568 80.6968 52.8122 80.8516C52.9675 81.0063 53.0549 81.2161 53.0551 81.435V85.8373C53.0549 86.0561 52.9675 86.2659 52.8122 86.4207C52.6568 86.5754 52.4463 86.6625 52.2266 86.6627Z" fill="#854DCE"/>
<path d="M51.9751 89.5818C52.0137 89.6523 52.0494 89.7247 52.0821 89.7992C52.2456 90.1672 52.3292 90.5654 52.3275 90.9677C52.3257 91.3701 52.2387 91.7676 52.072 92.1341C51.9053 92.5006 51.6627 92.8278 51.3603 93.0944C51.0578 93.3611 50.7021 93.561 50.3167 93.6811C50.227 93.7087 50.1359 93.7316 50.0438 93.7498L44.7691 107.343C44.5947 107.787 44.2812 108.164 43.8751 108.417C43.469 108.669 42.9919 108.785 42.5147 108.746L42.4882 108.741L31.0556 105.312C30.7448 105.219 30.4556 105.065 30.2047 104.86C29.9538 104.655 29.7462 104.402 29.5939 104.117C29.4416 103.831 29.3476 103.518 29.3173 103.196C29.287 102.874 29.3211 102.549 29.4175 102.241C29.5139 101.932 29.6708 101.645 29.8791 101.397C30.0874 101.149 30.3429 100.944 30.6309 100.795C30.919 100.646 31.2338 100.555 31.5573 100.528C31.8807 100.501 32.2064 100.538 32.5155 100.637L40.6046 103.224L46.8672 92.1628C46.8118 92.048 46.7646 91.9295 46.726 91.8081C46.5138 91.132 46.5614 90.4015 46.8595 89.7584C47.1577 89.1153 47.685 88.6055 48.3392 88.3281C48.9934 88.0506 49.7277 88.0253 50.3996 88.257C51.0715 88.4886 51.633 88.9608 51.9751 89.5818H51.9751Z" fill="#A0616A"/>
</g>
<defs>
<clipPath id="clip0">
<rect width="242" height="182" fill="white"/>
</clipPath>
</defs>
</svg>
