<svg width="281" height="200" viewBox="0 0 281 200" fill="none" xmlns="http://www.w3.org/2000/svg">
<g opacity="0.7">
<path opacity="0.7" d="M75.529 180.23C77.4156 180.23 78.945 178.713 78.945 176.841C78.945 174.969 77.4156 173.451 75.529 173.451C73.6424 173.451 72.113 174.969 72.113 176.841C72.113 178.713 73.6424 180.23 75.529 180.23Z" fill="url(#paint0_linear)"/>
</g>
<path opacity="0.2" d="M76.0366 179.796C77.8385 179.796 79.2992 178.346 79.2992 176.558C79.2992 174.77 77.8385 173.321 76.0366 173.321C74.2348 173.321 72.7741 174.77 72.7741 176.558C72.7741 178.346 74.2348 179.796 76.0366 179.796Z" fill="#A373DD"/>
<path d="M57.1246 111.976C57.8218 111.976 58.387 111.415 58.387 110.723C58.387 110.032 57.8218 109.471 57.1246 109.471C56.4273 109.471 55.8621 110.032 55.8621 110.723C55.8621 111.415 56.4273 111.976 57.1246 111.976Z" fill="white"/>
<path d="M147.228 184.684C147.926 184.684 148.491 184.123 148.491 183.431C148.491 182.739 147.926 182.178 147.228 182.178C146.531 182.178 145.966 182.739 145.966 183.431C145.966 184.123 146.531 184.684 147.228 184.684Z" fill="white"/>
<path d="M94.0077 190.518C94.3973 190.518 94.7132 190.204 94.7132 189.818C94.7132 189.431 94.3973 189.117 94.0077 189.117C93.6181 189.117 93.3022 189.431 93.3022 189.818C93.3022 190.204 93.6181 190.518 94.0077 190.518Z" fill="white"/>
<path d="M243.357 147.624C243.747 147.624 244.062 147.31 244.062 146.923C244.062 146.537 243.747 146.223 243.357 146.223C242.967 146.223 242.651 146.537 242.651 146.923C242.651 147.31 242.967 147.624 243.357 147.624Z" fill="white"/>
<path d="M203.008 84.7412C203.398 84.7412 203.714 84.4278 203.714 84.0411C203.714 83.6545 203.398 83.3411 203.008 83.3411C202.619 83.3411 202.303 83.6545 202.303 84.0411C202.303 84.4278 202.619 84.7412 203.008 84.7412Z" fill="white"/>
<path d="M260.189 115.445C260.579 115.445 260.895 115.132 260.895 114.745C260.895 114.359 260.579 114.045 260.189 114.045C259.8 114.045 259.484 114.359 259.484 114.745C259.484 115.132 259.8 115.445 260.189 115.445Z" fill="white"/>
<path d="M79.403 70.9552C80.1002 70.9552 80.6654 70.3943 80.6654 69.7024C80.6654 69.0106 80.1002 68.4497 79.403 68.4497C78.7058 68.4497 78.1406 69.0106 78.1406 69.7024C78.1406 70.3943 78.7058 70.9552 79.403 70.9552Z" fill="white"/>
<path d="M44.7056 154.464H43.5818V153.348H43.1238V154.464H42V154.918H43.1238V156.031H43.5818V154.918H44.7056V154.464Z" fill="white"/>
<path d="M72.9249 153.972H71.8011V152.857H71.3431V153.972H70.2193V154.427H71.3431V155.539H71.8011V154.427H72.9249V153.972Z" fill="white"/>
<path d="M113.274 176.571H112.15V175.455H111.692V176.571H110.568V177.025H111.692V178.138H112.15V177.025H113.274V176.571Z" fill="white"/>
<path d="M169.472 41.1034H168.96V40.595H168.752V41.1034H168.239V41.3098H168.752V41.8182H168.96V41.3098H169.472V41.1034Z" fill="white"/>
<path d="M235.649 78.7773H235.136V78.2688H234.928V78.7773H234.416V78.9836H234.928V79.4921H235.136V78.9836H235.649V78.7773Z" fill="white"/>
<path d="M199.424 118.232H198.912V117.724H198.704V118.232H198.191V118.439H198.704V118.947H198.912V118.439H199.424V118.232Z" fill="white"/>
<path d="M17.3202 128.395H16.8078V127.887H16.5999V128.395H16.0875V128.602H16.5999V129.11H16.8078V128.602H17.3202V128.395Z" fill="white"/>
<path d="M45.2081 179.15H44.6957V178.641H44.4877V179.15H43.9753V179.356H44.4877V179.864H44.6957V179.356H45.2081V179.15Z" fill="white"/>
<path d="M111.301 47.2443H110.788V46.7358H110.58V47.2443H110.068V47.4506H110.58V47.9591H110.788V47.4506H111.301V47.2443Z" fill="white"/>
<path d="M80.1109 120.689H79.5985V120.18H79.3906V120.689H78.8782V120.895H79.3906V121.403H79.5985V120.895H80.1109V120.689Z" fill="white"/>
<path d="M86.7944 99.5641H86.282V99.0557H86.0741V99.5641H85.5617V99.7704H86.0741V100.279H86.282V99.7704H86.7944V99.5641Z" fill="white"/>
<g opacity="0.7">
<path opacity="0.7" d="M192.043 148.313C193.618 148.313 194.894 147.046 194.894 145.483C194.894 143.92 193.618 142.653 192.043 142.653C190.468 142.653 189.191 143.92 189.191 145.483C189.191 147.046 190.468 148.313 192.043 148.313Z" fill="url(#paint1_linear)"/>
</g>
<path opacity="0.2" d="M192.043 148.104C193.501 148.104 194.684 146.93 194.684 145.483C194.684 144.035 193.501 142.862 192.043 142.862C190.584 142.862 189.401 144.035 189.401 145.483C189.401 146.93 190.584 148.104 192.043 148.104Z" fill="#A373DD"/>
<path opacity="0.2" d="M199.154 166.863C200.785 166.863 202.107 165.551 202.107 163.933C202.107 162.314 200.785 161.002 199.154 161.002C197.523 161.002 196.201 162.314 196.201 163.933C196.201 165.551 197.523 166.863 199.154 166.863Z" fill="#A373DD"/>
<g opacity="0.7">
<path opacity="0.7" d="M172.69 84.4135C172.711 78.2572 171.224 72.1881 168.358 66.7279C166.999 64.1635 165.759 62.5718 164.804 61.5917C164.439 61.2091 163.962 60.9497 163.441 60.8501C162.919 60.7506 162.38 60.8158 161.897 61.0366C161.512 61.1722 161.164 61.3951 160.88 61.6875C159.59 63.0139 158.425 64.7677 157.415 66.6321C154.401 72.2225 152.839 78.4694 152.867 84.809V88.6114H150.409V44.3949C150.409 35.1296 148.32 25.9895 144.221 17.8836C142.28 14.0419 140.508 11.6543 139.149 10.1879C138.819 9.81469 138.412 9.51567 137.957 9.31082C137.501 9.10597 137.007 9 136.506 9C136.006 9 135.511 9.10597 135.056 9.31082C134.6 9.51567 134.194 9.81469 133.864 10.1879C132.022 12.1751 130.359 14.8033 128.913 17.5962C124.608 25.879 122.423 35.2818 122.423 44.8174V88.5942H120.299V84.6076C120.326 78.2721 118.763 72.0295 115.751 66.443C114.734 64.5786 113.568 62.8248 112.286 61.4984C111.913 61.1058 111.424 60.842 110.889 60.7457C110.355 60.6493 109.803 60.7254 109.315 60.9629L109.405 61.0095C109.094 61.1468 108.812 61.3419 108.575 61.5843C107.622 62.5669 106.382 64.1561 105.023 66.7205C102.157 72.1807 100.671 78.2499 100.691 84.4062V150.482H108.276L107.439 155.913V172.156H113.642V155.913L112.813 150.479H120.289V90.2989H122.413V150.219H128.47L127.601 155.913V172.156H133.804V155.913L132.936 150.211H141.104L140.23 155.913V172.156H146.434V155.913L145.565 150.211H150.402V90.3063H152.86V150.578H154.853V150.487H161.442L160.615 155.913V172.156H166.819V155.913L165.989 150.479H172.69V84.4135Z" fill="url(#paint2_linear)"/>
</g>
<path d="M114.873 152.754H108.999L110.048 145.677H113.823L114.873 152.754Z" fill="#535461"/>
<path d="M145.656 153.371H139.782L140.831 146.294H144.606L145.656 153.371Z" fill="#535461"/>
<g opacity="0.1">
<path opacity="0.1" d="M109.756 148.487H114.115L113.823 146.51H110.048L109.756 148.487Z" fill="black"/>
</g>
<path d="M165.209 152.754H159.338L160.385 145.677H164.162L165.209 152.754Z" fill="#535461"/>
<g opacity="0.1">
<path opacity="0.1" d="M160.093 148.487H164.455L164.162 146.51H160.385L160.093 148.487Z" fill="black"/>
</g>
<path d="M133.958 152.754H128.086L129.133 145.677H132.911L133.958 152.754Z" fill="#535461"/>
<g opacity="0.1">
<path opacity="0.1" d="M128.841 148.487H133.203L132.911 146.51H129.133L128.841 148.487Z" fill="black"/>
</g>
<g opacity="0.1">
<path opacity="0.1" d="M140.797 148.487H145.159L144.864 146.51H141.089L140.797 148.487Z" fill="black"/>
</g>
<path d="M156.82 87.1941H114.873V88.8595H156.82V87.1941Z" fill="#A373DD"/>
<path d="M163.303 60.8916C163.082 60.6487 162.811 60.4545 162.51 60.3217C162.208 60.1888 161.881 60.1201 161.551 60.1201C161.221 60.1201 160.894 60.1888 160.592 60.3217C160.29 60.4545 160.02 60.6487 159.798 60.8916C158.578 62.1837 157.474 63.8908 156.511 65.7061C153.655 71.1686 152.178 77.2376 152.206 83.3917V147.463H170.772V83.1215C170.795 77.1377 169.389 71.2336 166.67 65.8927C165.38 63.3971 164.207 61.8349 163.303 60.8916Z" fill="#3D3D73"/>
<path d="M110.066 60.8916C110.287 60.6487 110.558 60.4545 110.859 60.3217C111.161 60.1888 111.488 60.1201 111.818 60.1201C112.148 60.1201 112.475 60.1888 112.777 60.3217C113.079 60.4545 113.349 60.6487 113.571 60.8916C114.793 62.1837 115.895 63.8908 116.86 65.7061C119.716 71.1691 121.193 77.2378 121.165 83.3917V147.463H102.6V83.1215C102.577 77.1377 103.982 71.2336 106.701 65.8927C107.989 63.3971 109.162 61.8349 110.066 60.8916Z" fill="#3D3D73"/>
<path d="M102.706 84.4873L107.112 84.5094V89.8986H102.706V84.4873Z" fill="#A373DD"/>
<path d="M116.759 84.4873L121.165 84.5094V89.8986H116.759V84.4873Z" fill="#A373DD"/>
<path d="M152.206 84.4873L156.61 84.5094V89.8986H152.206V84.4873Z" fill="#A373DD"/>
<path d="M166.259 84.4873L170.663 84.5094V89.8986H166.259V84.4873Z" fill="#A373DD"/>
<g opacity="0.1">
<path opacity="0.1" d="M116.86 65.6224C115.895 63.8072 114.793 62.1 113.571 60.808C113.225 60.4281 112.764 60.1711 112.257 60.0766C111.751 59.9821 111.227 60.0552 110.766 60.2848C111.031 60.4162 111.271 60.5933 111.474 60.808C112.694 62.1 113.798 63.8072 114.761 65.6224C117.618 71.0849 119.095 77.154 119.066 83.308V147.374H121.165V83.3105C121.193 77.1557 119.716 71.0861 116.86 65.6224V65.6224Z" fill="black"/>
</g>
<g opacity="0.1">
<path opacity="0.1" d="M158.189 65.7994C159.152 63.9842 160.256 62.277 161.477 60.985C161.705 60.7403 161.981 60.5447 162.289 60.4102C161.835 60.2132 161.33 60.1627 160.846 60.2658C160.362 60.369 159.923 60.6206 159.59 60.985C158.368 62.277 157.264 63.9842 156.301 65.7994C153.445 71.2624 151.968 77.3312 151.996 83.4851V147.561H153.885V83.49C153.855 77.3343 155.332 71.2635 158.189 65.7994V65.7994Z" fill="black"/>
</g>
<path d="M112.016 168.573H111.855C111.098 168.573 110.371 168.274 109.835 167.742C109.3 167.211 108.999 166.49 108.999 165.738V152.754H114.873V165.738C114.873 166.49 114.572 167.211 114.036 167.742C113.5 168.274 112.774 168.573 112.016 168.573Z" fill="url(#paint3_linear)"/>
<path d="M131.104 168.573H130.94C130.183 168.572 129.457 168.273 128.922 167.742C128.387 167.21 128.086 166.489 128.086 165.738V152.754H133.958V165.738C133.958 166.489 133.657 167.21 133.122 167.742C132.587 168.273 131.861 168.572 131.104 168.573Z" fill="url(#paint4_linear)"/>
<path d="M142.799 168.599H142.638C141.881 168.599 141.154 168.3 140.618 167.769C140.083 167.237 139.782 166.516 139.782 165.764V152.78H145.656V165.764C145.656 166.516 145.355 167.237 144.819 167.769C144.283 168.3 143.557 168.599 142.799 168.599Z" fill="url(#paint5_linear)"/>
<path d="M162.253 168.599H162.092C161.335 168.599 160.608 168.3 160.072 167.769C159.537 167.237 159.236 166.516 159.236 165.764V152.78H165.11V165.764C165.11 166.516 164.809 167.237 164.273 167.769C163.737 168.3 163.011 168.599 162.253 168.599Z" fill="url(#paint6_linear)"/>
<path d="M130.911 168.599H130.75C129.992 168.599 129.266 168.3 128.73 167.769C128.194 167.237 127.893 166.516 127.893 165.764V152.78H133.767V165.764C133.767 166.516 133.466 167.237 132.931 167.769C132.395 168.3 131.668 168.599 130.911 168.599Z" fill="url(#paint7_linear)"/>
<path d="M139.015 10.6545C138.708 10.2924 138.325 10.0013 137.893 9.80153C137.461 9.60179 136.99 9.49829 136.514 9.49829C136.037 9.49829 135.566 9.60179 135.134 9.80153C134.702 10.0013 134.319 10.2924 134.012 10.6545C132.28 12.5901 130.695 15.1472 129.309 17.8688C125.235 25.9354 123.165 35.0926 123.165 44.3776V147.202H149.652V43.9649C149.652 34.9428 147.671 26.0337 143.8 18.1488C141.981 14.4078 140.305 12.0817 139.015 10.6545Z" fill="#1A1A47"/>
<path d="M140.426 22.0767H132.049C130.546 22.0767 129.326 23.2864 129.326 24.7786V25.6605C129.326 27.1527 130.546 28.3624 132.049 28.3624H140.426C141.93 28.3624 143.149 27.1527 143.149 25.6605V24.7786C143.149 23.2864 141.93 22.0767 140.426 22.0767Z" fill="#A373DD"/>
<g opacity="0.1">
<path opacity="0.1" d="M149.526 47.8926H123.309V48.9021H149.526V47.8926Z" fill="black"/>
</g>
<path d="M195.233 85.4698C194.546 84.5739 193.686 83.8225 192.704 83.2591V83.2591C191.575 82.6131 190.311 82.2335 189.011 82.1494C187.711 82.0654 186.408 82.2792 185.205 82.7743C184.001 83.2694 182.928 84.0326 182.069 85.0049C181.21 85.9771 180.588 87.1324 180.25 88.3814C179.913 89.6304 179.87 90.9396 180.124 92.2078C180.378 93.4761 180.922 94.6694 181.715 95.6955C182.508 96.7216 183.528 97.553 184.696 98.1254C185.865 98.6979 187.15 98.996 188.453 98.9968C188.634 98.9968 188.815 98.9968 188.99 98.9772C190.522 98.8813 191.999 98.3755 193.264 97.5137C194.529 96.6519 195.535 95.4661 196.176 94.0824C196.816 92.6987 197.067 91.1686 196.901 89.6548C196.736 88.1409 196.16 86.6998 195.236 85.4845L195.233 85.4698Z" fill="url(#paint8_linear)"/>
<path opacity="0.2" d="M196.483 90.5495C196.483 92.5761 195.705 94.5265 194.307 96.004C192.909 97.4814 190.996 98.3751 188.958 98.5031C188.792 98.5031 188.622 98.5203 188.451 98.5203C187.218 98.521 186.001 98.2402 184.895 97.6996C183.789 97.1589 182.824 96.373 182.073 95.4026C181.322 94.4322 180.806 93.3033 180.566 92.1034C180.325 90.9035 180.366 89.6648 180.685 88.483C181.004 87.3013 181.593 86.2083 182.406 85.2886C183.219 84.369 184.235 83.6473 185.374 83.1795C186.513 82.7118 187.746 82.5104 188.976 82.5911C190.206 82.6717 191.401 83.0322 192.468 83.6447V83.6447C193.399 84.1804 194.212 84.8953 194.86 85.7473V85.7473C195.915 87.129 196.485 88.8157 196.483 90.5495Z" fill="#A373DD"/>
<path opacity="0.1" d="M186.473 85.492C186.058 85.6693 185.657 85.8788 185.275 86.1183C185.02 86.2567 184.8 86.4517 184.634 86.6882C184.551 86.8073 184.506 86.948 184.503 87.0925C184.501 87.2371 184.541 87.3792 184.619 87.5013C184.815 87.7665 185.191 87.8058 185.522 87.8255C185.871 87.8695 186.225 87.8342 186.557 87.7223C186.782 87.6121 186.986 87.4651 187.161 87.2876L187.852 86.6661C188.099 86.45 188.347 86.1527 188.25 85.8482C188.193 85.7394 188.11 85.6464 188.007 85.5778C187.905 85.5092 187.787 85.467 187.664 85.4551C187.068 85.34 186.451 85.4477 185.931 85.7573" fill="black"/>
<g opacity="0.1">
<path opacity="0.1" d="M183.589 94.1162C183.823 94.1162 184.012 93.9281 184.012 93.6962C184.012 93.4642 183.823 93.2761 183.589 93.2761C183.355 93.2761 183.166 93.4642 183.166 93.6962C183.166 93.9281 183.355 94.1162 183.589 94.1162Z" fill="black"/>
</g>
<g opacity="0.1">
<path opacity="0.1" d="M192.184 92.576C193.039 92.576 193.733 91.8876 193.733 91.0384C193.733 90.1892 193.039 89.5007 192.184 89.5007C191.328 89.5007 190.634 90.1892 190.634 91.0384C190.634 91.8876 191.328 92.576 192.184 92.576Z" fill="black"/>
</g>
<g opacity="0.1">
<path opacity="0.1" d="M194.874 85.7474C194.87 86.1494 194.749 86.5417 194.526 86.8775C194.303 87.2133 193.988 87.4785 193.618 87.6415C193.247 87.8045 192.838 87.8585 192.437 87.797C192.037 87.7356 191.663 87.5612 191.359 87.2947C191.056 87.0282 190.836 86.6809 190.726 86.2939C190.616 85.907 190.62 85.4969 190.738 85.1123C190.857 84.7277 191.084 84.385 191.393 84.1248C191.701 83.8646 192.079 83.698 192.481 83.6448V83.6448C193.412 84.1802 194.226 84.8951 194.874 85.7474Z" fill="black"/>
</g>
<g opacity="0.1">
<path opacity="0.1" d="M195.018 95.1379C194.327 96.1139 193.424 96.9232 192.375 97.5057C191.326 98.0882 190.158 98.4291 188.958 98.5031C188.958 98.3925 188.943 98.282 188.943 98.169C188.944 97.4695 189.14 96.7839 189.511 96.1886C189.881 95.5933 190.41 95.1117 191.04 94.7975C191.67 94.4832 192.375 94.3486 193.078 94.4087C193.78 94.4689 194.452 94.7213 195.018 95.1379V95.1379Z" fill="black"/>
</g>
<path d="M85.5048 130.973C85.0255 130.345 84.4246 129.817 83.7374 129.421V129.421C82.9486 128.962 82.0636 128.69 81.1514 128.625C80.2392 128.561 79.3243 128.707 78.4781 129.051C77.6319 129.395 76.8772 129.929 76.2727 130.61C75.6683 131.291 75.2305 132.101 74.9934 132.977C74.7563 133.854 74.7263 134.773 74.9057 135.663C75.0852 136.552 75.4692 137.389 76.028 138.108C76.5867 138.826 77.305 139.407 78.127 139.804C78.949 140.202 79.8524 140.406 80.7669 140.401C80.8932 140.401 81.0145 140.401 81.1432 140.389C82.2098 140.317 83.2372 139.962 84.1172 139.36C84.9972 138.757 85.6971 137.931 86.1431 136.967C86.5892 136.003 86.7649 134.937 86.6517 133.882C86.5385 132.828 86.1405 131.823 85.4999 130.973H85.5048Z" fill="url(#paint9_linear)"/>
<path opacity="0.2" d="M86.3761 134.518C86.3758 135.932 85.8328 137.293 84.8575 138.323C83.8822 139.354 82.5478 139.978 81.1258 140.067C81.0095 140.067 80.8783 140.067 80.7718 140.067C79.9123 140.067 79.0644 139.87 78.2936 139.493C77.5228 139.116 76.8498 138.567 76.3267 137.891C75.8035 137.214 75.4442 136.427 75.2766 135.59C75.1089 134.754 75.1374 133.89 75.3599 133.066C75.5823 132.243 75.9927 131.481 76.5594 130.839C77.126 130.198 77.8337 129.695 78.6278 129.368C79.4218 129.042 80.2809 128.901 81.1385 128.956C81.9962 129.012 82.8295 129.263 83.574 129.689V129.689C84.224 130.064 84.7914 130.565 85.2424 131.163C85.9804 132.128 86.3787 133.307 86.3761 134.518V134.518Z" fill="#A373DD"/>
<path opacity="0.1" d="M79.3906 130.991C79.1011 131.113 78.8222 131.258 78.5564 131.425C78.3792 131.524 78.2262 131.659 78.1084 131.823C78.0534 131.908 78.0241 132.006 78.0241 132.107C78.0241 132.208 78.0534 132.306 78.1084 132.391C78.1905 132.471 78.2892 132.533 78.3978 132.572C78.5063 132.611 78.6221 132.626 78.7371 132.617C78.9804 132.648 79.2276 132.624 79.4599 132.546C79.6173 132.468 79.7604 132.365 79.8832 132.241L80.3634 131.809C80.5317 131.656 80.7149 131.45 80.6407 131.239C80.6028 131.161 80.5451 131.095 80.4735 131.047C80.4018 130.999 80.3186 130.97 80.2322 130.964C79.8179 130.883 79.3882 130.958 79.0267 131.175" fill="black"/>
<g opacity="0.1">
<path opacity="0.1" d="M77.3781 137.004C77.5408 137.004 77.6727 136.873 77.6727 136.711C77.6727 136.55 77.5408 136.419 77.3781 136.419C77.2154 136.419 77.0836 136.55 77.0836 136.711C77.0836 136.873 77.2154 137.004 77.3781 137.004Z" fill="black"/>
</g>
<g opacity="0.1">
<path opacity="0.1" d="M83.376 135.933C83.9734 135.933 84.4577 135.452 84.4577 134.859C84.4577 134.266 83.9734 133.786 83.376 133.786C82.7786 133.786 82.2943 134.266 82.2943 134.859C82.2943 135.452 82.7786 135.933 83.376 135.933Z" fill="black"/>
</g>
<g opacity="0.1">
<path opacity="0.1" d="M85.2449 131.167C85.2426 131.451 85.1582 131.727 85.0018 131.964C84.8454 132.201 84.6235 132.388 84.3628 132.503C84.1021 132.618 83.8135 132.656 83.5315 132.612C83.2496 132.569 82.9862 132.445 82.773 132.257C82.5597 132.069 82.4056 131.824 82.329 131.551C82.2524 131.279 82.2566 130.99 82.3411 130.719C82.4256 130.449 82.5868 130.208 82.8054 130.026C83.0241 129.845 83.2909 129.729 83.574 129.694C84.2249 130.069 84.7932 130.57 85.2449 131.167V131.167Z" fill="black"/>
</g>
<g opacity="0.1">
<path opacity="0.1" d="M85.3538 137.718C84.8716 138.399 84.2413 138.964 83.5094 139.37C82.7776 139.777 81.9629 140.015 81.1259 140.067C81.1259 139.99 81.1259 139.912 81.1259 139.821C81.1263 139.333 81.2633 138.855 81.5215 138.439C81.7798 138.024 82.1492 137.688 82.5885 137.469C83.0279 137.249 83.52 137.156 84.01 137.197C84.5 137.239 84.9686 137.415 85.3637 137.706L85.3538 137.718Z" fill="black"/>
</g>
<path d="M236.374 105.64C236.625 105.64 236.829 105.437 236.829 105.188C236.829 104.938 236.625 104.736 236.374 104.736C236.122 104.736 235.918 104.938 235.918 105.188C235.918 105.437 236.122 105.64 236.374 105.64Z" fill="white"/>
<defs>
<linearGradient id="paint0_linear" x1="75.529" y1="180.23" x2="75.529" y2="173.453" gradientUnits="userSpaceOnUse">
<stop stop-color="#808080" stop-opacity="0.25"/>
<stop offset="0.54" stop-color="#808080" stop-opacity="0.12"/>
<stop offset="1" stop-color="#808080" stop-opacity="0.1"/>
</linearGradient>
<linearGradient id="paint1_linear" x1="4456.1" y1="3352.43" x2="4456.1" y2="3222.1" gradientUnits="userSpaceOnUse">
<stop stop-color="#808080" stop-opacity="0.25"/>
<stop offset="0.54" stop-color="#808080" stop-opacity="0.12"/>
<stop offset="1" stop-color="#808080" stop-opacity="0.1"/>
</linearGradient>
<linearGradient id="paint2_linear" x1="40199.3" y1="115387" x2="40199.3" y2="7006.78" gradientUnits="userSpaceOnUse">
<stop stop-color="#808080" stop-opacity="0.25"/>
<stop offset="0.54" stop-color="#808080" stop-opacity="0.12"/>
<stop offset="1" stop-color="#808080" stop-opacity="0.1"/>
</linearGradient>
<linearGradient id="paint3_linear" x1="111.937" y1="152.754" x2="111.937" y2="168.573" gradientUnits="userSpaceOnUse">
<stop stop-color="#E0E0E0"/>
<stop offset="0.31" stop-color="#FCCC63"/>
<stop offset="0.77" stop-color="#F55F44"/>
</linearGradient>
<linearGradient id="paint4_linear" x1="3263.8" y1="10089.2" x2="3263.8" y2="11107.9" gradientUnits="userSpaceOnUse">
<stop stop-color="#E0E0E0"/>
<stop offset="0.31" stop-color="#FCCC63"/>
<stop offset="0.77" stop-color="#F55F44"/>
</linearGradient>
<linearGradient id="paint5_linear" x1="142.72" y1="152.78" x2="142.72" y2="168.599" gradientUnits="userSpaceOnUse">
<stop stop-color="#E0E0E0"/>
<stop offset="0.31" stop-color="#FCCC63"/>
<stop offset="0.77" stop-color="#F55F44"/>
</linearGradient>
<linearGradient id="paint6_linear" x1="162.174" y1="152.78" x2="162.174" y2="168.599" gradientUnits="userSpaceOnUse">
<stop stop-color="#E0E0E0"/>
<stop offset="0.31" stop-color="#FCCC63"/>
<stop offset="0.77" stop-color="#F55F44"/>
</linearGradient>
<linearGradient id="paint7_linear" x1="130.832" y1="152.78" x2="130.832" y2="168.599" gradientUnits="userSpaceOnUse">
<stop stop-color="#E0E0E0"/>
<stop offset="0.31" stop-color="#FCCC63"/>
<stop offset="0.77" stop-color="#F55F44"/>
</linearGradient>
<linearGradient id="paint8_linear" x1="13195.5" y1="6983.89" x2="13195.5" y2="5825.92" gradientUnits="userSpaceOnUse">
<stop stop-color="#808080" stop-opacity="0.25"/>
<stop offset="0.54" stop-color="#808080" stop-opacity="0.12"/>
<stop offset="1" stop-color="#808080" stop-opacity="0.1"/>
</linearGradient>
<linearGradient id="paint9_linear" x1="4012.59" y1="6941.71" x2="4012.59" y2="6376.83" gradientUnits="userSpaceOnUse">
<stop stop-color="#808080" stop-opacity="0.25"/>
<stop offset="0.54" stop-color="#808080" stop-opacity="0.12"/>
<stop offset="1" stop-color="#808080" stop-opacity="0.1"/>
</linearGradient>
</defs>
</svg>
